<svg xmlns="http://www.w3.org/2000/svg" width="32" height="32" fill="none"><g clip-path="url(#a)"><path fill="#fff" fill-rule="evenodd" d="M15.949.485q4.327.05 7.818 2.127a15.6 15.6 0 0 1 5.555 5.59q2.066 3.51 2.114 7.865-.122 5.955-3.757 10.174c-2.423 2.812-5.526 4.552-8.74 5.219V20.327h3.038l.687-4.375h-4.6v-2.866a2.5 2.5 0 0 1 .53-1.645q.552-.703 1.944-.74h2.777V6.87q-.06-.018-1.135-.152a23 23 0 0 0-2.447-.152q-2.777.013-4.392 1.567-1.617 1.554-1.651 4.495v3.325h-3.5v4.375h3.5V31.46c-3.945-.667-7.048-2.407-9.471-5.219Q.584 22.022.46 16.067q.05-4.354 2.114-7.866a15.6 15.6 0 0 1 5.556-5.59Q11.621.536 15.95.486" clip-rule="evenodd"/></g><defs><clipPath id="a"><path fill="#fff" d="M0 0h32v32H0z"/></clipPath></defs></svg>