<svg xmlns="http://www.w3.org/2000/svg" width="32" height="32" fill="none"><g clip-path="url(#a)"><path fill="#fff" d="M16.315 32h-.319a111 111 0 0 1-7.08-.195c-2.066-.126-3.952-.84-5.455-2.065-1.45-1.182-2.44-2.78-2.942-4.75-.437-1.715-.46-3.399-.483-5.027A351 351 0 0 1 0 16.003c.003-1.414.02-2.798.036-3.966.022-1.628.046-3.312.483-5.027.503-1.97 1.493-3.568 2.942-4.75C4.964 1.035 6.851.321 8.917.195c2.254-.137 4.572-.2 7.085-.195 2.51-.005 4.826.058 7.08.195 2.067.126 3.953.84 5.455 2.065 1.45 1.182 2.44 2.78 2.943 4.75.437 1.715.46 3.399.483 5.027.016 1.168.033 2.552.036 3.96v.006a344 344 0 0 1-.036 3.96c-.023 1.628-.046 3.311-.483 5.026-.503 1.97-1.493 3.569-2.943 4.75-1.502 1.226-3.388 1.94-5.455 2.066-2.158.13-4.376.195-6.767.195m-.319-2.5a109 109 0 0 0 6.934-.19c1.563-.096 2.918-.603 4.028-1.508 1.025-.837 1.732-1.99 2.1-3.43.364-1.428.385-2.961.405-4.443.016-1.16.032-2.535.036-3.93-.004-1.393-.02-2.768-.036-3.928-.02-1.482-.041-3.015-.406-4.443-.367-1.44-1.074-2.594-2.1-3.43-1.11-.905-2.464-1.412-4.027-1.507a109 109 0 0 0-6.928-.19c-2.467-.007-4.733.056-6.934.19-1.562.095-2.917.602-4.027 1.506-1.026.837-1.732 1.991-2.1 3.431-.364 1.428-.385 2.96-.405 4.443a353 353 0 0 0-.036 3.932c.003 1.389.02 2.764.036 3.926.02 1.482.041 3.015.405 4.442.368 1.44 1.074 2.595 2.1 3.431 1.11.905 2.465 1.412 4.027 1.507 2.201.134 4.468.197 6.928.19m-.06-5.688c-4.307 0-7.812-3.504-7.812-7.812s3.505-7.813 7.813-7.813 7.812 3.505 7.812 7.813-3.504 7.812-7.812 7.812m0-13.125A5.32 5.32 0 0 0 10.625 16a5.32 5.32 0 0 0 5.313 5.312A5.32 5.32 0 0 0 21.249 16a5.32 5.32 0 0 0-5.312-5.313m8.688-5a1.875 1.875 0 1 0 0 3.75 1.875 1.875 0 0 0 0-3.75"/></g><defs><clipPath id="a"><path fill="#fff" d="M0 0h32v32H0z"/></clipPath></defs></svg>