<svg xmlns="http://www.w3.org/2000/svg" width="32" height="32" fill="none"><path fill="#fff" d="M28.768 8.064c-.96.416-1.952.704-3.008.832a5.12 5.12 0 0 0 2.304-2.912c-1.024.608-2.144 1.024-3.328 1.28a5.251 5.251 0 0 0-9.088 3.584c0 .416.032.8.128 1.184-4.352-.192-8.192-2.304-10.784-5.472-1.856 3.328.224 6.08 1.6 7.008-.832 0-1.664-.256-2.368-.64 0 2.592 1.824 4.736 4.192 5.216-.512.16-1.664.256-2.368.096.672 2.08 2.624 3.616 4.896 3.648-1.792 1.408-4.416 2.528-7.776 2.176a14.8 14.8 0 0 0 8.064 2.368c9.664 0 14.912-8 14.912-14.912 0-.224 0-.448-.032-.672 1.088-.8 1.984-1.728 2.656-2.784"/></svg>