<svg width="56" height="63" viewBox="0 0 56 63" fill="none" xmlns="http://www.w3.org/2000/svg">
<path d="M19.7512 45.1987L27.8422 53.1749L35.9333 45.1987L27.8422 37.2225L19.7512 45.1987ZM27.8422 6.48894V6.50094C25.5264 6.50094 23.2106 7.37252 21.4464 9.1117L21.4383 9.10371C19.6781 10.8429 18.794 13.1298 18.794 15.4167C18.794 17.7077 19.6741 19.9906 21.4302 21.7218H21.4424L27.8422 28.0268L34.238 21.7218H34.2502C36.0185 19.9786 36.9026 17.6957 36.9026 15.4167H36.8904C36.8904 13.1338 36.0063 10.8509 34.2421 9.1117C32.4657 7.36453 30.1499 6.48894 27.8422 6.48894ZM40.5973 49.7965L30.1742 60.0717L27.8422 62.3706L25.5102 60.0717L15.0871 49.7965L4.66403 60.0717L0 55.4738L23.1823 32.6246L16.7864 26.3196L16.7946 26.3116C13.7325 23.297 12.2035 19.3509 12.2035 15.4167C12.2035 11.4786 13.7325 7.53645 16.7864 4.52587V4.51787C19.8404 1.50729 23.8433 0 27.8422 0V0.0119943C31.8492 0.0119943 35.8562 1.51529 38.9021 4.51787C41.956 7.52845 43.4809 11.4746 43.4809 15.4207H43.4688C43.4688 19.3629 41.9438 23.305 38.8939 26.3156L38.9021 26.3236L32.5063 32.6246L55.6845 55.4738L51.0204 60.0717L40.5973 49.7965Z" fill="white"/>
</svg>
